<mxfile host="Electron" agent="Mozilla/5.0 (Windows NT 10.0; Win64; x64) AppleWebKit/537.36 (KHTML, like Gecko) draw.io/27.0.2 Chrome/134.0.6998.205 Electron/35.3.0 Safari/537.36" version="27.0.2">
  <diagram name="Page-1" id="03018318-947c-dd8e-b7a3-06fadd420f32">
    <mxGraphModel dx="1028" dy="611" grid="1" gridSize="10" guides="1" tooltips="1" connect="1" arrows="1" fold="1" page="1" pageScale="1" pageWidth="1100" pageHeight="850" background="#ffffff" math="0" shadow="0">
      <root>
        <mxCell id="0" />
        <mxCell id="1" parent="0" />
        <mxCell id="677b7b8949515195-1" value="" style="whiteSpace=wrap;html=1;rounded=0;shadow=0;labelBackgroundColor=none;strokeColor=#000000;strokeWidth=1;fillColor=none;fontFamily=Verdana;fontSize=12;fontColor=#000000;align=center;comic=1;" parent="1" vertex="1">
          <mxGeometry x="20" y="20" width="1000" height="810" as="geometry" />
        </mxCell>
        <mxCell id="677b7b8949515195-2" value="LOGO" style="whiteSpace=wrap;html=1;rounded=0;shadow=0;labelBackgroundColor=none;strokeWidth=1;fontFamily=Verdana;fontSize=28;align=center;comic=1;" parent="1" vertex="1">
          <mxGeometry x="130" y="40" width="190" height="50" as="geometry" />
        </mxCell>
        <mxCell id="677b7b8949515195-15" value="&lt;div style=&quot;text-align: justify&quot;&gt;&lt;br&gt;&lt;/div&gt;&lt;div style=&quot;text-align: justify&quot;&gt;&lt;br&gt;&lt;/div&gt;&lt;div style=&quot;text-align: justify&quot;&gt;Contenedor para suscripción e información&lt;/div&gt;&lt;div style=&quot;text-align: justify&quot;&gt;&lt;br&gt;&lt;/div&gt;&lt;div style=&quot;text-align: justify&quot;&gt;&lt;br&gt;&lt;/div&gt;&lt;div style=&quot;text-align: justify&quot;&gt;&lt;br&gt;&lt;/div&gt;" style="whiteSpace=wrap;html=1;rounded=0;shadow=0;labelBackgroundColor=none;strokeWidth=1;fillColor=none;fontFamily=Verdana;fontSize=12;align=center;verticalAlign=top;spacing=10;comic=1;" parent="1" vertex="1">
          <mxGeometry x="165" y="180" width="670" height="165" as="geometry" />
        </mxCell>
        <mxCell id="JX4ozrnnW1V1URRFT7VI-2" value="&lt;div&gt;login&lt;/div&gt;" style="whiteSpace=wrap;html=1;rounded=0;shadow=0;labelBackgroundColor=none;strokeWidth=1;fontFamily=Verdana;fontSize=28;align=center;comic=1;" parent="1" vertex="1">
          <mxGeometry x="850" y="50" width="120" height="30" as="geometry" />
        </mxCell>
        <mxCell id="JX4ozrnnW1V1URRFT7VI-3" value="enlace" style="rounded=1;whiteSpace=wrap;html=1;" parent="1" vertex="1">
          <mxGeometry x="340" y="50" width="70" height="30" as="geometry" />
        </mxCell>
        <mxCell id="JX4ozrnnW1V1URRFT7VI-8" value="" style="group" parent="1" vertex="1" connectable="0">
          <mxGeometry x="20" y="110" width="1040" height="50" as="geometry" />
        </mxCell>
        <mxCell id="677b7b8949515195-10" value="" style="whiteSpace=wrap;html=1;rounded=0;shadow=0;labelBackgroundColor=none;strokeWidth=1;fillColor=none;fontFamily=Verdana;fontSize=12;align=center;comic=1;" parent="JX4ozrnnW1V1URRFT7VI-8" vertex="1">
          <mxGeometry width="1000" height="50" as="geometry" />
        </mxCell>
        <mxCell id="677b7b8949515195-11" value="Enlace 1" style="text;html=1;points=[];align=left;verticalAlign=top;spacingTop=-4;fontSize=14;fontFamily=Verdana" parent="JX4ozrnnW1V1URRFT7VI-8" vertex="1">
          <mxGeometry x="310" y="15" width="60" height="20" as="geometry" />
        </mxCell>
        <mxCell id="677b7b8949515195-12" value="Enlace 2" style="text;html=1;points=[];align=left;verticalAlign=top;spacingTop=-4;fontSize=14;fontFamily=Verdana" parent="JX4ozrnnW1V1URRFT7VI-8" vertex="1">
          <mxGeometry x="457" y="15" width="60" height="20" as="geometry" />
        </mxCell>
        <mxCell id="677b7b8949515195-13" value="Enlace 3" style="text;html=1;points=[];align=left;verticalAlign=top;spacingTop=-4;fontSize=14;fontFamily=Verdana" parent="JX4ozrnnW1V1URRFT7VI-8" vertex="1">
          <mxGeometry x="603" y="15" width="60" height="20" as="geometry" />
        </mxCell>
        <mxCell id="677b7b8949515195-14" value="Enlace 4" style="text;html=1;points=[];align=left;verticalAlign=top;spacingTop=-4;fontSize=14;fontFamily=Verdana" parent="JX4ozrnnW1V1URRFT7VI-8" vertex="1">
          <mxGeometry x="750" y="15" width="60" height="20" as="geometry" />
        </mxCell>
        <mxCell id="JX4ozrnnW1V1URRFT7VI-16" value="&lt;font style=&quot;font-size: 16px;&quot;&gt;&lt;b&gt;Nav&lt;/b&gt;&lt;/font&gt;" style="text;html=1;align=center;verticalAlign=middle;whiteSpace=wrap;rounded=0;" parent="JX4ozrnnW1V1URRFT7VI-8" vertex="1">
          <mxGeometry x="10" width="60" height="45" as="geometry" />
        </mxCell>
        <mxCell id="JX4ozrnnW1V1URRFT7VI-9" value="" style="group" parent="1" vertex="1" connectable="0">
          <mxGeometry x="20" y="730" width="1000" height="100" as="geometry" />
        </mxCell>
        <mxCell id="JX4ozrnnW1V1URRFT7VI-10" value="" style="whiteSpace=wrap;html=1;rounded=0;shadow=0;labelBackgroundColor=none;strokeWidth=1;fillColor=none;fontFamily=Verdana;fontSize=12;align=center;comic=1;" parent="JX4ozrnnW1V1URRFT7VI-9" vertex="1">
          <mxGeometry width="1000" height="100" as="geometry" />
        </mxCell>
        <mxCell id="JX4ozrnnW1V1URRFT7VI-11" value="Enlace 1" style="text;html=1;points=[];align=left;verticalAlign=top;spacingTop=-4;fontSize=14;fontFamily=Verdana" parent="JX4ozrnnW1V1URRFT7VI-9" vertex="1">
          <mxGeometry x="270.0048766328012" y="10" width="57.14804063860668" height="40" as="geometry" />
        </mxCell>
        <mxCell id="JX4ozrnnW1V1URRFT7VI-12" value="Enlace 2" style="text;html=1;points=[];align=left;verticalAlign=top;spacingTop=-4;fontSize=14;fontFamily=Verdana" parent="JX4ozrnnW1V1URRFT7VI-9" vertex="1">
          <mxGeometry x="389.9975761973875" y="10" width="57.14804063860668" height="40" as="geometry" />
        </mxCell>
        <mxCell id="JX4ozrnnW1V1URRFT7VI-13" value="Enlace 3" style="text;html=1;points=[];align=left;verticalAlign=top;spacingTop=-4;fontSize=14;fontFamily=Verdana" parent="JX4ozrnnW1V1URRFT7VI-9" vertex="1">
          <mxGeometry x="519.9978084179971" y="10" width="57.14804063860668" height="40" as="geometry" />
        </mxCell>
        <mxCell id="JX4ozrnnW1V1URRFT7VI-14" value="Enlace 4" style="text;html=1;points=[];align=left;verticalAlign=top;spacingTop=-4;fontSize=14;fontFamily=Verdana" parent="JX4ozrnnW1V1URRFT7VI-9" vertex="1">
          <mxGeometry x="640.0005079825835" y="10" width="57.14804063860668" height="40" as="geometry" />
        </mxCell>
        <mxCell id="JX4ozrnnW1V1URRFT7VI-15" value="&lt;font style=&quot;font-size: 17px;&quot;&gt;&lt;b&gt;Footer&lt;/b&gt;&lt;/font&gt;" style="text;html=1;align=center;verticalAlign=middle;whiteSpace=wrap;rounded=0;" parent="JX4ozrnnW1V1URRFT7VI-9" vertex="1">
          <mxGeometry x="9.997924528301885" y="-20" width="56.60377358490567" height="90" as="geometry" />
        </mxCell>
        <mxCell id="qUrloPtSv1xD6VKH8vv6-12" value="rrss" style="whiteSpace=wrap;html=1;aspect=fixed;" vertex="1" parent="JX4ozrnnW1V1URRFT7VI-9">
          <mxGeometry x="370" y="50" width="40" height="40" as="geometry" />
        </mxCell>
        <mxCell id="qUrloPtSv1xD6VKH8vv6-13" value="rrss" style="whiteSpace=wrap;html=1;aspect=fixed;" vertex="1" parent="JX4ozrnnW1V1URRFT7VI-9">
          <mxGeometry x="460" y="50" width="40" height="40" as="geometry" />
        </mxCell>
        <mxCell id="qUrloPtSv1xD6VKH8vv6-14" value="rrss" style="whiteSpace=wrap;html=1;aspect=fixed;" vertex="1" parent="JX4ozrnnW1V1URRFT7VI-9">
          <mxGeometry x="540" y="50" width="40" height="40" as="geometry" />
        </mxCell>
        <mxCell id="JX4ozrnnW1V1URRFT7VI-17" value="&lt;span style=&quot;font-size: 16px;&quot;&gt;&lt;b&gt;Header&lt;/b&gt;&lt;/span&gt;" style="text;html=1;align=center;verticalAlign=middle;whiteSpace=wrap;rounded=0;" parent="1" vertex="1">
          <mxGeometry x="40" y="50" width="60" height="45" as="geometry" />
        </mxCell>
        <mxCell id="JX4ozrnnW1V1URRFT7VI-25" value="&lt;span style=&quot;font-size: 16px;&quot;&gt;&lt;b&gt;Main&lt;/b&gt;&lt;/span&gt;" style="text;html=1;align=center;verticalAlign=middle;whiteSpace=wrap;rounded=0;" parent="1" vertex="1">
          <mxGeometry x="30" y="170" width="60" height="45" as="geometry" />
        </mxCell>
        <mxCell id="qUrloPtSv1xD6VKH8vv6-1" value="enlace" style="rounded=1;whiteSpace=wrap;html=1;" vertex="1" parent="1">
          <mxGeometry x="430" y="50" width="70" height="30" as="geometry" />
        </mxCell>
        <mxCell id="qUrloPtSv1xD6VKH8vv6-2" value="enlace" style="rounded=1;whiteSpace=wrap;html=1;" vertex="1" parent="1">
          <mxGeometry x="560" y="50" width="70" height="30" as="geometry" />
        </mxCell>
        <mxCell id="qUrloPtSv1xD6VKH8vv6-3" value="enlace" style="rounded=1;whiteSpace=wrap;html=1;" vertex="1" parent="1">
          <mxGeometry x="640" y="50" width="70" height="30" as="geometry" />
        </mxCell>
        <mxCell id="qUrloPtSv1xD6VKH8vv6-4" value="enlace" style="rounded=1;whiteSpace=wrap;html=1;" vertex="1" parent="1">
          <mxGeometry x="730" y="50" width="70" height="30" as="geometry" />
        </mxCell>
        <mxCell id="qUrloPtSv1xD6VKH8vv6-5" value="&lt;div style=&quot;text-align: justify&quot;&gt;&lt;span&gt;&lt;br&gt;&lt;/span&gt;&lt;/div&gt;&lt;div style=&quot;text-align: justify&quot;&gt;&lt;span&gt;&lt;br&gt;&lt;/span&gt;&lt;/div&gt;&lt;div style=&quot;text-align: justify&quot;&gt;&lt;span&gt;Lorem ipsum dolor sit amet, consectetur adipisicing elit, sed do eiusmod tempor incididunt ut labore et dolore magna aliqua. Ut enim ad minim veniam, quis nostrud exercitation ullamco laboris nisi ut aliquip ex ea commodo consequat. Duis aute irure dolor in reprehenderit in voluptate velit esse cillum dolore eu fugiat nulla pariatur. Excepteur sint occaecat cupidatat non proident, sunt in culpa qui officia deserunt mollit anim id est laborum.&lt;/span&gt;&lt;/div&gt;&lt;div style=&quot;text-align: justify&quot;&gt;&lt;span&gt;Sed ut perspiciatis unde omnis iste natus error sit voluptatem accusantium doloremque laudantium, totam rem aperiam, eaque ipsa quae ab illo inventore veritatis et quasi architecto beatae vitae dicta sunt explicabo. Nemo enim ipsam voluptatem quia voluptas sit aspernatur aut odit aut fugit, sed quia consequuntur magni dolores eos qui ratione voluptatem sequi nesciunt.&amp;nbsp;&lt;/span&gt;&lt;/div&gt;" style="whiteSpace=wrap;html=1;rounded=0;shadow=0;labelBackgroundColor=none;strokeWidth=1;fillColor=none;fontFamily=Verdana;fontSize=12;align=center;verticalAlign=top;spacing=10;comic=1;" vertex="1" parent="1">
          <mxGeometry x="90" y="370" width="850" height="160" as="geometry" />
        </mxCell>
        <mxCell id="qUrloPtSv1xD6VKH8vv6-6" value="&lt;div style=&quot;text-align: justify&quot;&gt;&lt;span&gt;&lt;br&gt;&lt;/span&gt;&lt;/div&gt;&lt;div style=&quot;text-align: justify&quot;&gt;&lt;span&gt;&lt;br&gt;&lt;/span&gt;&lt;/div&gt;&lt;div style=&quot;text-align: justify&quot;&gt;&lt;span&gt;Lorem ipsum dolor sit amet, consectetur adipisicing elit, sed do eiusmod tempor incididunt ut labore et dolore magna aliqua. Ut enim ad minim veniam, quis nostrud exercitation ullamco laboris nisi ut aliquip ex ea commodo consequat. Duis aute irure dolor in reprehenderit in voluptate velit esse cillum dolore eu fugiat nulla pariatur. Excepteur sint occaecat cupidatat non proident, sunt in culpa qui officia deserunt mollit anim id est laborum.&lt;/span&gt;&lt;/div&gt;&lt;div style=&quot;text-align: justify&quot;&gt;&lt;span&gt;Sed ut perspiciatis unde omnis iste natus error sit voluptatem accusantium doloremque laudantium, totam rem aperiam, eaque ipsa quae ab illo inventore veritatis et quasi architecto beatae vitae dicta sunt explicabo. Nemo enim ipsam voluptatem quia voluptas sit aspernatur aut odit aut fugit, sed quia consequuntur magni dolores eos qui ratione voluptatem sequi nesciunt.&amp;nbsp;&lt;/span&gt;&lt;/div&gt;" style="whiteSpace=wrap;html=1;rounded=0;shadow=0;labelBackgroundColor=none;strokeWidth=1;fillColor=none;fontFamily=Verdana;fontSize=12;align=center;verticalAlign=top;spacing=10;comic=1;" vertex="1" parent="1">
          <mxGeometry x="90" y="550" width="850" height="150" as="geometry" />
        </mxCell>
        <mxCell id="qUrloPtSv1xD6VKH8vv6-7" value="artículo 1" style="rounded=1;whiteSpace=wrap;html=1;" vertex="1" parent="1">
          <mxGeometry x="190" y="195" width="120" height="20" as="geometry" />
        </mxCell>
        <mxCell id="qUrloPtSv1xD6VKH8vv6-8" value="artículo 2" style="rounded=1;whiteSpace=wrap;html=1;" vertex="1" parent="1">
          <mxGeometry x="100" y="380" width="120" height="20" as="geometry" />
        </mxCell>
        <mxCell id="qUrloPtSv1xD6VKH8vv6-9" value="artículo 3" style="rounded=1;whiteSpace=wrap;html=1;" vertex="1" parent="1">
          <mxGeometry x="100" y="560" width="120" height="20" as="geometry" />
        </mxCell>
        <mxCell id="qUrloPtSv1xD6VKH8vv6-10" value="enlace información" style="rounded=1;whiteSpace=wrap;html=1;" vertex="1" parent="1">
          <mxGeometry x="360" y="250" width="140" height="30" as="geometry" />
        </mxCell>
        <mxCell id="qUrloPtSv1xD6VKH8vv6-11" value="enlace contacto" style="rounded=1;whiteSpace=wrap;html=1;" vertex="1" parent="1">
          <mxGeometry x="520" y="250" width="120" height="30" as="geometry" />
        </mxCell>
      </root>
    </mxGraphModel>
  </diagram>
</mxfile>
